<svg width="24" height="24" viewBox="0 0 24 24" fill="none" xmlns="http://www.w3.org/2000/svg">
<path fill-rule="evenodd" clip-rule="evenodd" d="M6.10526 5C5.49484 5 5 5.49484 5 6.10526V17.8947C5 18.5052 5.49484 19 6.10526 19H17.8947C18.5052 19 19 18.5052 19 17.8947V6.10526C19 5.49484 18.5052 5 17.8947 5H6.10526ZM6.10526 17.8947V6.10526H17.8947V17.8947H6.10526ZM15.9766 9.77674C16.1316 9.60475 16.1159 9.34138 15.9416 9.1885C15.7672 9.03562 15.5002 9.05111 15.3452 9.2231L11.1371 13.8928L8.63778 11.4275C8.47281 11.2648 8.20536 11.2648 8.04039 11.4275C7.87543 11.5902 7.87543 11.8541 8.04039 12.0168L10.8565 14.7945C10.9387 14.8757 11.0513 14.9198 11.1676 14.9164C11.2839 14.913 11.3936 14.8625 11.4709 14.7767L15.9766 9.77674Z" fill="#CECECE"/>
</svg>
